<svg width="32" height="32" viewBox="0 0 32 32" fill="none" xmlns="http://www.w3.org/2000/svg">
<rect width="32" height="32" fill="black"/>
<path d="M17.2585 4.84505C18.3645 4.82932 19.6676 4.93169 20.9119 5.24349C22.1518 5.55421 23.3786 6.08468 24.281 6.95638C24.5663 7.23213 24.7658 7.61804 24.9128 8.0013C25.0636 8.39445 25.1784 8.83849 25.2683 9.27572C25.4478 10.149 25.5389 11.0597 25.5974 11.5951L25.6033 11.6478C25.6531 12.1589 25.6332 12.7965 25.6374 13.2533L25.6384 13.3451V13.348C25.6736 15.8514 25.2137 18.9404 23.7537 21.1654C23.6632 21.3048 23.5682 21.4408 23.4695 21.5736L23.4675 21.5775C23.3619 21.7173 23.2779 21.8149 23.2253 21.8783C23.2038 21.9042 23.1905 21.9215 23.1824 21.932C23.1821 21.9345 23.1817 21.9376 23.1814 21.9408C23.1777 21.9819 23.1757 22.0409 23.1755 22.139V22.2513L23.1765 23.5404C23.1771 24.3769 23.2481 25.4007 22.364 26.2874C21.9885 26.67 21.5125 26.9382 20.991 27.0618L20.988 27.0628H20.9861C20.595 27.1519 20.124 27.1333 19.8425 27.1331H14.0095C13.603 27.1333 13.1734 27.1361 12.7605 27.0345C12.3202 26.9261 11.9202 26.7074 11.5232 26.3128L11.5212 26.3099C11.1521 25.9389 10.8906 25.4744 10.7664 24.9661V24.9632C10.7133 24.7418 10.7007 24.4302 10.697 24.181C10.6931 23.9201 10.6985 23.6387 10.699 23.4779L10.698 22.141C10.6799 22.1295 10.662 22.1185 10.6453 22.1077C8.6517 20.831 7.03766 18.7697 6.4978 16.4027C6.26388 15.3768 6.22708 14.1737 6.88842 13.1361C7.47551 12.2151 8.42968 11.7284 9.34838 11.4788L9.39331 11.4671C9.46431 11.4487 9.53751 11.4314 9.6101 11.4154C9.6077 11.2697 9.60314 11.1144 9.59936 10.9515C9.59189 10.6294 9.58754 10.2754 9.61694 9.96224C9.70662 9.00802 10.253 7.97541 10.8396 7.31087C12.3525 5.5973 14.8012 4.97075 16.8533 4.85579H16.8611C16.9933 4.85009 17.1261 4.84611 17.2585 4.84505ZM20.449 26.5648C20.5033 26.5621 20.5572 26.5593 20.6101 26.554C20.5572 26.5593 20.5033 26.5621 20.449 26.5648ZM20.823 26.5228C20.8259 26.5222 20.8289 26.5214 20.8318 26.5208L20.8611 26.515C20.8485 26.5178 20.8358 26.5202 20.823 26.5228ZM21.9626 25.8929C22.0047 25.8509 22.045 25.8095 22.0818 25.7669C22.045 25.8095 22.0047 25.8509 21.9626 25.8929ZM22.2761 25.5023C22.226 25.5828 22.1682 25.662 22.1023 25.7406C22.1682 25.662 22.226 25.5828 22.2761 25.5023ZM22.2986 25.4642C22.3172 25.4328 22.3348 25.4012 22.3513 25.3695C22.3348 25.4012 22.3172 25.4328 22.2986 25.4642ZM12.4939 23.6029C12.4922 23.9786 12.4732 24.2327 12.5085 24.4906C12.5383 24.7078 12.6031 24.8691 12.738 25.0091L12.7517 25.0228L12.865 25.1263C12.9729 25.2145 13.0649 25.2596 13.1531 25.2874C13.2846 25.3289 13.4489 25.345 13.7224 25.3451H19.7927C20.1719 25.3457 20.3579 25.3594 20.5486 25.3285C20.6911 25.3053 20.8307 25.2549 21.0193 25.096C21.1619 24.9631 21.2404 24.8515 21.2888 24.7445C21.3384 24.6347 21.3713 24.4961 21.3787 24.2884C21.3916 23.9221 21.3866 23.5391 21.3806 23.141C21.3776 22.9395 21.3744 22.7338 21.3738 22.5277C20.7859 22.53 20.1979 22.5278 19.6101 22.5228H13.0886C12.8909 22.5229 12.6871 22.5204 12.4929 22.5208C12.4929 22.8762 12.4956 23.2316 12.4939 23.6029ZM22.3962 25.2757C22.4006 25.2662 22.4057 25.257 22.4099 25.2474C22.4057 25.257 22.4006 25.2662 22.3962 25.2757ZM22.4382 25.1771C22.4496 25.1479 22.4605 25.1187 22.4705 25.0892C22.4605 25.1187 22.4496 25.1479 22.4382 25.1771ZM22.4822 25.055C22.4919 25.0246 22.5002 24.9939 22.5085 24.9632C22.5002 24.9939 22.4919 25.0246 22.4822 25.055ZM22.53 24.8812C22.5324 24.8711 22.5346 24.861 22.5369 24.8509C22.5346 24.861 22.5324 24.8711 22.53 24.8812ZM22.5632 24.6966C22.5724 24.6394 22.5815 24.582 22.5876 24.5238C22.5815 24.582 22.5724 24.6394 22.5632 24.6966ZM22.5974 24.4163C22.602 24.3564 22.6057 24.2958 22.6082 24.2347C22.6057 24.2958 22.602 24.3564 22.5974 24.4163ZM11.9314 23.5999C11.9306 23.7694 11.9254 23.9393 11.9255 24.1068C11.9254 23.9596 11.9297 23.8105 11.9314 23.6615V23.5999ZM22.6121 24.1048C22.6148 23.9747 22.6154 23.842 22.615 23.7064L22.614 23.5404C22.6141 23.7339 22.6159 23.9222 22.6121 24.1048ZM22.9109 21.3724C22.9329 21.3451 22.9579 21.3163 22.9832 21.2835L23.0183 21.2386C22.9796 21.2899 22.9426 21.333 22.9109 21.3724ZM22.1101 21.307L21.9421 21.3031C21.8089 21.3006 21.6738 21.3002 21.5378 21.2992C21.7312 21.3007 21.9225 21.3024 22.1101 21.307ZM21.3904 21.2972C20.7105 21.2938 20.0088 21.3032 19.3484 21.3031C20.0088 21.3032 20.7105 21.2938 21.3904 21.2972ZM17.281 6.63021C16.0772 6.65289 14.6802 6.89849 13.5457 7.46908C12.4298 8.03026 11.6153 8.87696 11.405 10.1117L11.4001 10.141C11.3823 10.2514 11.3781 10.388 11.3806 10.5648C11.3828 10.7183 11.3906 10.9229 11.3835 11.1068C11.4094 12.9221 11.4735 14.722 11.8279 16.4495L11.8445 16.5316C11.8741 16.672 11.9165 16.8127 11.9665 16.9779C12.0144 17.1358 12.0709 17.3203 12.113 17.512C12.1827 17.83 12.0664 18.1062 11.8718 18.2865C11.7103 18.4361 11.5157 18.5032 11.3923 18.5355L11.2527 18.5716L11.113 18.5365C11.073 18.5264 10.9391 18.498 10.8171 18.431C10.6631 18.3463 10.557 18.2247 10.4802 18.0892C10.3358 17.8338 10.2607 17.551 10.2087 17.3529C9.85401 16.0007 9.73455 14.6008 9.66088 13.2562C9.15509 13.4271 8.78519 13.6773 8.54272 13.9818C8.21912 14.3883 8.05695 14.9754 8.20874 15.8226C8.47484 17.3078 9.27688 18.5777 10.3884 19.6634C10.7789 20.0267 11.3997 20.5225 11.8337 20.7337C11.8414 20.7343 11.851 20.7351 11.8611 20.7357C11.9269 20.7396 12.0148 20.7415 12.1121 20.7425C12.3097 20.7446 12.5039 20.7417 12.5925 20.7415L14.1658 20.7396L19.3484 20.7406C20.1421 20.7407 21.0277 20.7266 21.8533 20.7396C22.7273 19.6583 23.2693 18.2211 23.5681 16.6624C23.8842 15.0131 23.9192 13.2703 23.8132 11.7669C23.7392 10.7146 23.5552 9.23759 23.1501 8.35189C23.1493 8.35084 23.1482 8.34923 23.1472 8.34798C23.1345 8.33178 23.115 8.30942 23.0896 8.28255C23.0377 8.22773 22.9806 8.17555 22.949 8.14876C21.5511 6.96459 19.2116 6.6011 17.281 6.63021ZM24.1521 19.1351C24.1316 19.1883 24.1089 19.2406 24.0876 19.2933C24.1089 19.2406 24.1316 19.1883 24.1521 19.1351ZM24.2244 18.9349C24.2519 18.8589 24.2813 18.7833 24.3074 18.7064C24.2813 18.7833 24.2519 18.8589 24.2244 18.9349ZM11.2029 17.9798L11.2498 17.9915C11.2235 17.9849 11.1997 17.9783 11.1775 17.972C11.1858 17.9744 11.1941 17.9775 11.2029 17.9798ZM11.3796 17.9466C11.4198 17.9279 11.4564 17.904 11.4871 17.8763L11.49 17.8734C11.4588 17.9024 11.4211 17.9272 11.3796 17.9466ZM11.1082 17.9456C11.1225 17.9522 11.137 17.959 11.1531 17.9642C11.137 17.959 11.1225 17.9522 11.1082 17.9456ZM11.0447 17.9036C11.0574 17.9148 11.0689 17.9258 11.0828 17.9339C11.0689 17.9258 11.0574 17.9148 11.0447 17.9036ZM24.5427 17.9173C24.557 17.8639 24.573 17.8109 24.5867 17.7572C24.573 17.8109 24.557 17.8639 24.5427 17.9173ZM10.9705 17.8128C10.9874 17.8427 11.0054 17.8657 11.0232 17.8851C11.0054 17.8657 10.9874 17.8427 10.9705 17.8128ZM11.5525 17.7835C11.5539 17.7802 11.5562 17.7772 11.5574 17.7738C11.5562 17.7772 11.5539 17.7802 11.5525 17.7835ZM11.5623 17.7533C11.5657 17.7392 11.5693 17.7248 11.5701 17.7093C11.5693 17.7248 11.5657 17.7392 11.5623 17.7533ZM11.5681 17.6849C11.5675 17.6712 11.568 17.6567 11.5652 17.6419L11.5632 17.6322C11.5673 17.6505 11.5674 17.6682 11.5681 17.6849ZM24.7136 17.2103C24.6873 17.3342 24.6582 17.4574 24.6287 17.5804C24.6582 17.4574 24.6873 17.3342 24.7136 17.2103ZM24.7273 17.141C24.7531 17.0169 24.7778 16.8926 24.8005 16.7679C24.7778 16.8926 24.7531 17.0169 24.7273 17.141ZM24.8542 16.4495C24.8635 16.3922 24.873 16.335 24.8816 16.2777C24.873 16.335 24.8635 16.3922 24.8542 16.4495ZM6.90796 15.1839C6.90719 15.1291 6.90652 15.0745 6.90796 15.0199C6.90652 15.0745 6.90719 15.1291 6.90796 15.1839ZM24.9148 16.0404C24.9264 15.9546 24.9396 15.8692 24.9499 15.7835C24.9396 15.8692 24.9264 15.9546 24.9148 16.0404ZM24.9744 15.5492C24.9832 15.4666 24.9921 15.3843 24.9998 15.3021C24.9921 15.3843 24.9832 15.4666 24.9744 15.5492ZM25.0193 15.0687C25.0267 14.9746 25.0338 14.8809 25.0398 14.7874C25.0338 14.8809 25.0267 14.9746 25.0193 15.0687ZM25.0466 14.6634C25.0529 14.5538 25.059 14.4448 25.0632 14.3363C25.059 14.4448 25.0529 14.5538 25.0466 14.6634ZM6.96362 14.4759C6.96101 14.4902 6.95822 14.5045 6.95581 14.5189C6.95822 14.5045 6.96101 14.4902 6.96362 14.4759ZM7.0476 14.1263C7.04176 14.1454 7.03645 14.1647 7.031 14.1839C7.03645 14.1647 7.04176 14.1454 7.0476 14.1263ZM25.0701 14.0902C25.0718 14.0222 25.0739 13.9545 25.0749 13.887C25.0739 13.9545 25.0718 14.0222 25.0701 14.0902ZM7.1101 13.9466C7.09623 13.9832 7.08336 14.02 7.07104 14.057C7.08336 14.02 7.09623 13.9832 7.1101 13.9466ZM7.25952 13.6175C7.24119 13.6517 7.2245 13.6864 7.20776 13.721C7.2245 13.6864 7.24119 13.6517 7.25952 13.6175ZM25.0769 13.6009C25.0769 13.5575 25.0782 13.5142 25.0779 13.471L25.0759 13.3558C25.0771 13.437 25.0768 13.5187 25.0769 13.6009ZM7.33764 13.4788C7.32786 13.4948 7.3197 13.5116 7.3103 13.5277C7.32763 13.4981 7.34442 13.468 7.36303 13.4388L7.33764 13.4788ZM8.02319 12.722C7.95243 12.777 7.88392 12.8347 7.81811 12.8958C7.88392 12.8347 7.95243 12.777 8.02319 12.722ZM8.57006 12.3763C8.52087 12.4017 8.47347 12.43 8.42553 12.4574C8.47347 12.43 8.52087 12.4017 8.57006 12.3763ZM8.86401 12.2386C8.79568 12.2674 8.72938 12.3002 8.66284 12.3324C8.72938 12.3002 8.79568 12.2674 8.86401 12.2386ZM25.071 12.2728C25.0699 12.2081 25.0704 12.1439 25.0681 12.0804C25.0704 12.1439 25.0699 12.2081 25.071 12.2728ZM9.16088 12.1253C9.10881 12.1432 9.05797 12.1643 9.00659 12.1839C9.05797 12.1643 9.10881 12.1432 9.16088 12.1253ZM9.45581 12.0326C9.40813 12.0459 9.36153 12.0628 9.31421 12.0775C9.37463 12.0588 9.43488 12.0384 9.49585 12.0218L9.45581 12.0326ZM24.9158 10.6048C24.969 11.0104 25.0084 11.3782 25.0388 11.6566C25.0489 11.7486 25.053 11.8445 25.0583 11.9427C25.0539 11.8618 25.0512 11.7823 25.0437 11.7054L25.0388 11.6566C25.0084 11.3782 24.969 11.0104 24.9158 10.6048ZM10.8201 10.3509C10.8135 10.6007 10.8315 10.8653 10.821 11.1009C10.8315 10.8653 10.8135 10.6007 10.8201 10.3509ZM10.157 10.4749C10.1566 10.5277 10.1585 10.5812 10.1589 10.6351C10.1585 10.5812 10.1566 10.5277 10.157 10.4749ZM16.989 7.68783C18.4464 7.62153 19.7602 8.07048 20.9568 8.74837L21.0144 8.7806C21.1327 8.84861 21.2547 8.93549 21.3621 9.03744C21.4639 9.13416 21.5846 9.27511 21.6511 9.45931C21.7258 9.66601 21.7288 9.92613 21.574 10.1634C21.4381 10.3717 21.2274 10.4881 21.0388 10.5579L20.9119 10.6048L20.7771 10.5892C20.4978 10.5562 20.2342 10.4094 20.0691 10.3138C19.8697 10.1984 19.7531 10.1209 19.6374 10.0648L19.615 10.054C18.9447 9.74606 18.491 9.59031 17.7947 9.5013L17.7898 9.50033H17.7849C16.8405 9.3626 15.71 9.63603 14.949 10.2044C14.9328 10.2165 14.9138 10.2328 14.8806 10.2601C14.8511 10.2844 14.8097 10.3181 14.7664 10.3509C14.6872 10.4108 14.5468 10.5097 14.3679 10.5579C14.1297 10.6226 13.8752 10.5832 13.6677 10.4495L13.6638 10.4476C13.4311 10.2947 13.2429 10.0429 13.2546 9.70931C13.2644 9.43337 13.4115 9.22259 13.5105 9.10482C13.7161 8.86042 14.0165 8.66935 14.1257 8.59994C15.0483 8.01379 15.9356 7.78667 16.9617 7.68978L16.989 7.68783ZM10.1628 10.2347C10.1616 10.2653 10.1607 10.2962 10.1599 10.3275C10.1607 10.2962 10.1616 10.2653 10.1628 10.2347ZM20.8289 10.0286L20.8435 10.0306C20.8186 10.0277 20.7933 10.0205 20.7673 10.014C20.7884 10.0193 20.8085 10.0257 20.8289 10.0286ZM14.2214 10.015C14.2559 10.0057 14.2904 9.99097 14.324 9.97201C14.2904 9.99097 14.2559 10.0057 14.2214 10.015ZM10.2234 9.71126C10.2024 9.81347 10.1859 9.91454 10.1765 10.014C10.1859 9.91454 10.2024 9.81347 10.2234 9.71126ZM20.6335 9.97005C20.6634 9.98235 20.6925 9.9942 20.7214 10.0033C20.6925 9.9942 20.6634 9.98235 20.6335 9.97005ZM13.9011 9.92025C13.921 9.93959 13.9445 9.95856 13.9724 9.97689C13.9445 9.95856 13.921 9.93959 13.9011 9.92025ZM20.573 9.94369C20.583 9.94832 20.5924 9.95398 20.6023 9.95833C20.5924 9.95398 20.583 9.94832 20.573 9.94369ZM14.3845 9.93099C14.3968 9.92245 14.4105 9.91566 14.4226 9.90658C14.4105 9.91566 14.3968 9.92245 14.3845 9.93099ZM13.8533 9.86165C13.8586 9.87026 13.8661 9.8776 13.8728 9.88607C13.8661 9.8776 13.8586 9.87026 13.8533 9.86165ZM13.8259 9.79915C13.8289 9.80985 13.8339 9.81985 13.8386 9.8304C13.8339 9.81985 13.8289 9.80985 13.8259 9.79915ZM20.0896 9.6722C20.1751 9.72243 20.263 9.77596 20.3503 9.8265C20.2643 9.7767 20.1778 9.72376 20.0935 9.67415L20.0896 9.6722ZM13.8181 9.73763C13.8181 9.74753 13.8198 9.7571 13.821 9.76693C13.8198 9.7571 13.8181 9.74753 13.8181 9.73763ZM13.8269 9.6722C13.8243 9.68268 13.8225 9.693 13.821 9.70345C13.8225 9.693 13.8243 9.68268 13.8269 9.6722ZM13.8484 9.61068C13.8448 9.61851 13.8416 9.62628 13.8386 9.63412C13.8416 9.62628 13.8448 9.61851 13.8484 9.61068ZM13.8865 9.54329C13.8788 9.55505 13.8715 9.56661 13.865 9.57845C13.8715 9.56661 13.8788 9.55505 13.8865 9.54329ZM13.9226 9.49251C13.9202 9.49561 13.9171 9.49819 13.9148 9.5013C13.9171 9.49819 13.9202 9.49561 13.9226 9.49251ZM14.0486 9.3597C14.0276 9.37912 14.0074 9.39899 13.988 9.41927C14.0074 9.39899 14.0276 9.37912 14.0486 9.3597ZM14.1716 9.25521C14.1457 9.2754 14.12 9.29677 14.0945 9.31869C14.12 9.29677 14.1457 9.2754 14.1716 9.25521ZM15.0398 8.74056C14.8359 8.83479 14.6323 8.94442 14.4275 9.07454L14.3796 9.10482C14.3537 9.12173 14.3264 9.14405 14.2957 9.16537C14.3471 9.12974 14.3918 9.09721 14.4275 9.07454C14.6323 8.94442 14.8359 8.83478 15.0398 8.74056ZM24.572 8.77376C24.5454 8.67643 24.5167 8.58128 24.4871 8.48861C24.5167 8.58128 24.5454 8.67643 24.572 8.77376ZM10.5447 8.7806C10.541 8.78835 10.5376 8.79626 10.5339 8.80404C10.5376 8.79626 10.541 8.78835 10.5447 8.7806ZM15.3484 8.6097C15.2717 8.63896 15.196 8.67184 15.1199 8.7054C15.196 8.67184 15.2717 8.63896 15.3484 8.6097ZM15.6619 8.50228C15.5767 8.52843 15.4929 8.55842 15.4089 8.58919C15.4929 8.55842 15.5767 8.52843 15.6619 8.50228ZM10.697 8.48861C10.688 8.50473 10.6795 8.52119 10.6707 8.53744C10.6795 8.52119 10.688 8.50473 10.697 8.48861ZM15.9783 8.41634C15.8914 8.43731 15.8056 8.46061 15.7205 8.48568C15.8056 8.46061 15.8914 8.43731 15.9783 8.41634ZM16.2898 8.34994C16.216 8.36369 16.1433 8.37964 16.071 8.39583C16.1433 8.37964 16.216 8.36368 16.2898 8.34994ZM10.8796 8.1888C10.8442 8.24279 10.8109 8.29869 10.7771 8.35482C10.8109 8.29869 10.8442 8.24279 10.8796 8.1888ZM16.615 8.2972C16.5637 8.30433 16.5131 8.31257 16.4626 8.32064C16.5131 8.31257 16.5637 8.30433 16.615 8.2972ZM24.4187 8.29037C24.4096 8.2652 24.4017 8.23981 24.3923 8.21517C24.4017 8.23981 24.4096 8.2652 24.4187 8.29037ZM24.3083 8.014C24.3018 7.99909 24.2965 7.98371 24.2898 7.96908C24.2965 7.98371 24.3018 7.99909 24.3083 8.014ZM11.7615 7.19271C11.5848 7.34486 11.4166 7.50718 11.2615 7.68294L11.2371 7.71126C11.1972 7.75736 11.16 7.80723 11.1208 7.85677C11.168 7.79705 11.2132 7.73761 11.2615 7.68294C11.4166 7.50719 11.5848 7.34485 11.7615 7.19271ZM24.1873 7.7679C24.1822 7.75881 24.1777 7.7495 24.1726 7.74056C24.1777 7.7495 24.1822 7.75881 24.1873 7.7679ZM24.033 7.52474C24.0114 7.496 23.9891 7.46874 23.9665 7.44271C23.9891 7.46874 24.0114 7.496 24.033 7.52474ZM23.9304 7.40365C23.9228 7.39558 23.9156 7.38699 23.908 7.37923L23.8894 7.36068C23.9034 7.37418 23.9168 7.38913 23.9304 7.40365ZM12.1101 6.91634C12.0878 6.93268 12.0658 6.9495 12.0437 6.96615C12.0658 6.9495 12.0878 6.93268 12.1101 6.91634ZM12.4236 6.7015C12.3965 6.71879 12.3703 6.73751 12.3435 6.75521C12.3703 6.73751 12.3965 6.71879 12.4236 6.7015ZM12.7576 6.5013C12.7006 6.53297 12.6455 6.56764 12.5896 6.60091C12.6455 6.56764 12.7006 6.53297 12.7576 6.5013ZM13.0915 6.32845C13.0676 6.34012 13.0441 6.35266 13.0203 6.36458C13.0441 6.35266 13.0676 6.34012 13.0915 6.32845ZM13.4509 6.16537C13.4096 6.18288 13.3689 6.20184 13.3279 6.22005C13.3689 6.20184 13.4096 6.18288 13.4509 6.16537ZM13.8015 6.02669C13.7658 6.03988 13.7305 6.05405 13.6951 6.06771C13.7305 6.05405 13.7658 6.03988 13.8015 6.02669ZM14.1941 5.89193C14.1311 5.91183 14.069 5.93412 14.0066 5.9554C14.069 5.93412 14.1311 5.91183 14.1941 5.89193ZM14.5505 5.78744C14.4857 5.80513 14.4216 5.82501 14.3572 5.84408C14.4216 5.82501 14.4857 5.80513 14.5505 5.78744ZM14.9246 5.69271C14.8893 5.70089 14.8543 5.71051 14.8191 5.71908C14.8543 5.71051 14.8893 5.70089 14.9246 5.69271ZM15.3269 5.60775C15.2629 5.61998 15.1994 5.63437 15.1355 5.64779C15.1994 5.63437 15.2629 5.61998 15.3269 5.60775ZM15.6873 5.54525C15.6416 5.55243 15.5962 5.56093 15.5505 5.56869C15.5962 5.56093 15.6416 5.55243 15.6873 5.54525ZM16.1033 5.48763C16.0314 5.4963 15.9596 5.50687 15.8874 5.51693C15.9596 5.50687 16.0314 5.4963 16.1033 5.48763ZM16.4773 5.44857C16.3907 5.4563 16.3038 5.46525 16.2165 5.47494C16.3038 5.46525 16.3907 5.4563 16.4773 5.44857ZM16.7917 5.42318C16.7399 5.42647 16.6877 5.4319 16.6355 5.43587C16.7192 5.4295 16.8027 5.42196 16.8855 5.41732L16.7917 5.42318ZM12.0144 24.8538C12.0215 24.877 12.0286 24.9003 12.0369 24.9232C12.0286 24.9003 12.0215 24.877 12.0144 24.8538ZM23.7771 19.9896C23.7689 20.006 23.7619 20.023 23.7537 20.0394C23.7619 20.023 23.7689 20.006 23.7771 19.9896ZM23.2839 20.8568C23.369 20.7272 23.4509 20.5943 23.529 20.4583C23.4509 20.5943 23.369 20.7272 23.2839 20.8568ZM11.2498 17.9915C11.2935 17.9801 11.3385 17.9658 11.3796 17.9466C11.3385 17.9658 11.2935 17.9801 11.2498 17.9915ZM6.97534 15.9183C6.99536 16.0386 7.01953 16.1588 7.04663 16.2777C7.01953 16.1588 6.99536 16.0386 6.97534 15.9183ZM6.92749 15.554C6.9226 15.503 6.92193 15.4517 6.9187 15.4007C6.92193 15.4517 6.9226 15.503 6.92749 15.554ZM6.9187 14.8294C6.91743 14.846 6.91584 14.8626 6.91479 14.8792C6.91584 14.8626 6.91743 14.846 6.9187 14.8294ZM7.17944 13.7806C7.15858 13.8265 7.13907 13.8727 7.12085 13.9193C7.13907 13.8727 7.15858 13.8265 7.17944 13.7806ZM8.14526 12.6322C8.10829 12.6582 8.07172 12.6847 8.03588 12.7122C8.07172 12.6847 8.10829 12.6582 8.14526 12.6322ZM10.3025 9.39974C10.2842 9.46014 10.2705 9.52123 10.2556 9.58138C10.2705 9.52123 10.2842 9.46014 10.3025 9.39974ZM24.7039 9.32943C24.7088 9.3529 24.7147 9.3762 24.7195 9.39974C24.7147 9.3762 24.7088 9.3529 24.7039 9.32943ZM10.4119 9.08919C10.4019 9.11447 10.3929 9.14001 10.3835 9.16537C10.3929 9.14001 10.4019 9.11447 10.4119 9.08919ZM24.6072 8.91048C24.5955 8.86461 24.5844 8.81885 24.572 8.77376C24.5844 8.81885 24.5955 8.86461 24.6072 8.91048ZM11.0623 7.92806C11.0014 8.00849 10.942 8.09273 10.8845 8.18001C10.942 8.09273 11.0014 8.00849 11.0623 7.92806ZM24.1062 7.63607C24.0815 7.59775 24.059 7.55938 24.033 7.52474C24.059 7.55938 24.0815 7.59775 24.1062 7.63607Z" fill="white"/>
</svg>
